<svg width="61" height="59" viewBox="0 0 61 59" fill="none" xmlns="http://www.w3.org/2000/svg">
<path d="M43.5763 14.776L42.0381 15.4528L42.1769 13.778C42.2048 13.4417 42.2219 13.1146 42.2219 12.7876C42.2219 6.27421 36.9684 1 30.5 1C24.0311 1 18.7781 6.27418 18.7781 12.7876C18.7781 13.1147 18.7952 13.4422 18.8226 13.7797L18.9585 15.4516L17.4231 14.776C15.9832 14.1424 14.395 13.7876 12.7219 13.7876C6.25236 13.7876 1 19.0565 1 25.5694C1 31.1501 4.86511 35.822 10.0479 37.0398L11.6236 37.41L10.5874 38.6534C8.87875 40.7039 7.85035 43.3369 7.85035 46.2183C7.85035 52.7311 13.1027 58 19.5723 58C23.8484 58 27.5916 55.6981 29.6405 52.2522L30.5 50.8066L31.3595 52.2522C33.4084 55.6981 37.1516 58 41.4277 58C47.8967 58 53.1497 52.7311 53.1497 46.2183C53.1497 43.337 52.1207 40.7039 50.4125 38.6533L49.3767 37.4099L50.9521 37.0398C56.1349 35.822 60 31.1501 60 25.5694C60 19.0566 54.7471 13.7876 48.2781 13.7876C46.6044 13.7876 45.0161 14.1424 43.5763 14.776ZM30.5 40.0033C25.2424 40.0033 20.9882 35.7215 20.9882 30.4545C20.9882 25.1819 25.242 20.8996 30.5 20.8996C35.758 20.8996 40.0118 25.1819 40.0118 30.4545C40.0118 35.7215 35.7576 40.0033 30.5 40.0033Z" stroke="#EBDEBB" stroke-width="2"/>
</svg>
