<svg width="72" height="72" viewBox="0 0 72 72" fill="none" xmlns="http://www.w3.org/2000/svg">
<rect x="1.04006" y="1.04006" width="69.9199" height="69.9199" rx="15.6009" fill="white"/>
<rect x="1.04006" y="1.04006" width="69.9199" height="69.9199" rx="15.6009" stroke="#C8AA60" stroke-width="2.08012"/>
<path d="M12.4805 18.3606C12.4805 15.1133 15.113 12.4808 18.3603 12.4808C21.6076 12.4808 24.2401 15.1133 24.2401 18.3606V30.1203C24.2401 33.3676 21.6076 36.0001 18.3603 36.0001C15.113 36.0001 12.4805 33.3676 12.4805 30.1203V18.3606Z" fill="#C8AA60"/>
<path d="M47.7594 53.6396C47.7594 50.3922 50.3919 47.7597 53.6392 47.7597C56.8865 47.7597 59.519 50.3922 59.519 53.6396C59.519 56.8869 56.8865 59.5194 53.6392 59.5194C50.3919 59.5194 47.7594 56.8869 47.7594 53.6396Z" fill="#C8AA60"/>
<path d="M53.043 12.4808C49.4664 12.4808 46.6312 15.4076 45.9595 18.9206C43.3475 32.5816 32.5813 43.3478 18.9202 45.9599C15.4073 46.6316 12.4805 49.4667 12.4805 53.0433C12.4805 56.6199 15.3961 59.5662 18.9394 59.0796C39.7504 56.2217 56.2213 39.7508 59.0792 18.9397C59.5658 15.3964 56.6196 12.4808 53.043 12.4808Z" fill="#C8AA60"/>
</svg>
