<svg width="106" height="106" viewBox="0 0 106 106" fill="none" xmlns="http://www.w3.org/2000/svg">
<path d="M53 85.625C54.8771 85.625 56.5068 84.9338 57.8893 83.5514C59.2717 82.169 59.9607 80.5414 59.9563 78.6687C59.9563 76.7917 59.2651 75.1641 57.8826 73.7861C56.5002 72.4081 54.8727 71.7169 53 71.7125C51.1229 71.7125 49.4932 72.4037 48.1108 73.7861C46.7284 75.1685 46.0394 76.7961 46.0438 78.6687C46.0438 80.5458 46.735 82.1756 48.1174 83.558C49.4998 84.9404 51.1273 85.6294 53 85.625ZM48.0313 64.425H57.9688C57.9688 61.2229 58.3 58.8755 58.9625 57.3826C59.625 55.8898 61.1708 53.931 63.6 51.5063C66.9125 48.1938 69.1208 45.5172 70.225 43.4767C71.3292 41.4362 71.8813 39.0336 71.8813 36.2688C71.8813 31.3 70.1411 27.2433 66.6608 24.0986C63.1804 20.954 58.6269 19.3794 53 19.375C48.4729 19.375 44.5244 20.6448 41.1545 23.1844C37.7846 25.724 35.4394 29.0917 34.1188 33.2875L43.0625 36.9313C44.0563 34.1708 45.41 32.0994 47.1236 30.717C48.8373 29.3346 50.7961 28.6456 53 28.65C55.65 28.65 57.8031 29.3964 59.4594 30.8893C61.1156 32.3821 61.9438 34.3961 61.9438 36.9313C61.9438 38.4771 61.5021 39.9412 60.6188 41.3236C59.7354 42.706 58.1896 44.444 55.9813 46.5375C52.3375 49.7396 50.1027 52.2505 49.2768 54.0701C48.4508 55.8898 48.0357 59.3414 48.0313 64.425ZM13.25 105.5C9.60628 105.5 6.48588 104.201 3.88888 101.604C1.29188 99.0075 -0.00440542 95.8893 1.12479e-05 92.25V12.75C1.12479e-05 9.10626 1.29851 5.98588 3.89551 3.38888C6.49251 0.791885 9.61069 -0.504405 13.25 -0.499989H92.75C96.3938 -0.499989 99.5141 0.798511 102.111 3.39551C104.708 5.99251 106.004 9.11068 106 12.75V92.25C106 95.8937 104.702 99.0141 102.105 101.611C99.5075 104.208 96.3893 105.504 92.75 105.5H13.25Z" fill="#EBDEBB"/>
</svg>
